<mxfile host="app.diagrams.net" modified="2024-02-12T04:43:12.943Z" agent="Mozilla/5.0 (Windows NT 10.0; Win64; x64) AppleWebKit/537.36 (KHTML, like Gecko) Chrome/121.0.0.0 Safari/537.36" etag="fKpmheeMnhg9lYOCrpQp" version="23.1.2" type="gitlab">
  <diagram name="Page-1" id="PXkgD-dJsTnPxLLCSWwt">
    <mxGraphModel dx="673" dy="2567" grid="1" gridSize="10" guides="1" tooltips="1" connect="1" arrows="1" fold="1" page="1" pageScale="1" pageWidth="850" pageHeight="1100" math="0" shadow="0">
      <root>
        <mxCell id="0" />
        <mxCell id="1" parent="0" />
        <mxCell id="r75Npt6Qh3wSkLgOKH2S-9" value="&#xa;&lt;span style=&quot;color: rgb(255, 255, 255); font-family: Helvetica; font-size: 16px; font-style: normal; font-variant-ligatures: normal; font-variant-caps: normal; font-weight: 400; letter-spacing: normal; orphans: 2; text-align: left; text-indent: 0px; text-transform: none; widows: 2; word-spacing: 0px; -webkit-text-stroke-width: 0px; background-color: rgb(251, 251, 251); text-decoration-thickness: initial; text-decoration-style: initial; text-decoration-color: initial; float: none; display: inline !important;&quot;&gt;CarPrice&lt;/span&gt;&#xa;&#xa;" style="strokeWidth=1;shadow=0;dashed=0;align=center;html=1;shape=mxgraph.mockup.containers.browserWindow;rSize=0;strokeColor=#FFFFFF;mainText=,;recursiveResize=0;rounded=0;labelBackgroundColor=none;fontFamily=Verdana;fontSize=12;gradientColor=#e4e2e2;labelPadding=0;strokeOpacity=100;" vertex="1" parent="1">
          <mxGeometry x="2470" y="80" width="1110" height="990" as="geometry" />
        </mxCell>
        <mxCell id="r75Npt6Qh3wSkLgOKH2S-10" value="Register" style="strokeWidth=1;shadow=0;dashed=0;align=center;html=1;shape=mxgraph.mockup.containers.anchor;fontSize=17;fontColor=#666666;align=left;" vertex="1" parent="r75Npt6Qh3wSkLgOKH2S-9">
          <mxGeometry x="60" y="10" width="180" height="28" as="geometry" />
        </mxCell>
        <mxCell id="r75Npt6Qh3wSkLgOKH2S-11" value="https://register" style="strokeWidth=1;shadow=0;dashed=0;align=center;html=1;shape=mxgraph.mockup.containers.anchor;rSize=0;fontSize=17;fontColor=#666666;align=left;" vertex="1" parent="r75Npt6Qh3wSkLgOKH2S-9">
          <mxGeometry x="130" y="60" width="250" height="26" as="geometry" />
        </mxCell>
        <mxCell id="r75Npt6Qh3wSkLgOKH2S-12" value="VG-15 Classification" style="html=1;shadow=0;dashed=0;fillColor=#546869;strokeColor=none;fontSize=16;fontColor=#ffffff;align=left;spacing=15;" vertex="1" parent="r75Npt6Qh3wSkLgOKH2S-9">
          <mxGeometry y="110" width="1110" height="60" as="geometry" />
        </mxCell>
        <mxCell id="r75Npt6Qh3wSkLgOKH2S-13" value="Login" style="fillColor=none;strokeColor=none;fontSize=14;fontColor=#ffffff;align=center;" vertex="1" parent="r75Npt6Qh3wSkLgOKH2S-12">
          <mxGeometry width="70" height="50" relative="1" as="geometry">
            <mxPoint x="940" y="5" as="offset" />
          </mxGeometry>
        </mxCell>
        <mxCell id="r75Npt6Qh3wSkLgOKH2S-30" value="Register" style="fillColor=none;strokeColor=none;fontSize=14;fontColor=#ffffff;align=center;" vertex="1" parent="r75Npt6Qh3wSkLgOKH2S-12">
          <mxGeometry x="1020" y="5" width="70" height="50" as="geometry" />
        </mxCell>
        <mxCell id="r75Npt6Qh3wSkLgOKH2S-31" value="Home" style="fillColor=none;strokeColor=none;fontSize=14;fontColor=#ffffff;align=center;" vertex="1" parent="r75Npt6Qh3wSkLgOKH2S-12">
          <mxGeometry x="420" y="5" width="70" height="50" as="geometry" />
        </mxCell>
        <mxCell id="r75Npt6Qh3wSkLgOKH2S-32" value="Predict" style="fillColor=none;strokeColor=none;fontSize=14;fontColor=#ffffff;align=center;" vertex="1" parent="r75Npt6Qh3wSkLgOKH2S-12">
          <mxGeometry x="480" y="5" width="70" height="50" as="geometry" />
        </mxCell>
        <mxCell id="r75Npt6Qh3wSkLgOKH2S-33" value="Visualisation" style="fillColor=none;strokeColor=none;fontSize=14;fontColor=#ffffff;align=center;" vertex="1" parent="r75Npt6Qh3wSkLgOKH2S-12">
          <mxGeometry x="560" y="5" width="70" height="50" as="geometry" />
        </mxCell>
        <mxCell id="r75Npt6Qh3wSkLgOKH2S-17" value="&lt;br&gt;" style="shape=ext;double=1;rounded=0;whiteSpace=wrap;html=1;fillColor=#CCFFFF;" vertex="1" parent="1">
          <mxGeometry x="2470" y="250" width="1110" height="830" as="geometry" />
        </mxCell>
        <mxCell id="r75Npt6Qh3wSkLgOKH2S-18" value="&lt;br&gt;&lt;br&gt;" style="shape=ext;double=1;rounded=1;whiteSpace=wrap;html=1;strokeColor=#006666;fillColor=#67AB9F;" vertex="1" parent="1">
          <mxGeometry x="2780" y="460" width="490" height="470" as="geometry" />
        </mxCell>
        <mxCell id="r75Npt6Qh3wSkLgOKH2S-19" value="&lt;font style=&quot;font-size: 30px;&quot;&gt;Register Page&lt;/font&gt;" style="text;strokeColor=none;fillColor=none;html=1;fontSize=24;fontStyle=1;verticalAlign=middle;align=center;" vertex="1" parent="1">
          <mxGeometry x="2870" y="10" width="325" height="60" as="geometry" />
        </mxCell>
        <mxCell id="r75Npt6Qh3wSkLgOKH2S-20" value="&lt;font color=&quot;#ffffff&quot; style=&quot;font-size: 30px;&quot;&gt;&lt;b&gt;Registration&lt;/b&gt;&lt;/font&gt;" style="text;html=1;strokeColor=none;fillColor=none;align=center;verticalAlign=middle;whiteSpace=wrap;rounded=0;" vertex="1" parent="1">
          <mxGeometry x="2870" y="490" width="280" height="30" as="geometry" />
        </mxCell>
        <mxCell id="r75Npt6Qh3wSkLgOKH2S-21" value="Username" style="fillColor=none;strokeColor=none;align=left;fontSize=14;fontColor=#212529;" vertex="1" parent="1">
          <mxGeometry x="2810" y="560" width="200" height="30" as="geometry" />
        </mxCell>
        <mxCell id="r75Npt6Qh3wSkLgOKH2S-22" value="" style="html=1;shadow=1;dashed=0;shape=mxgraph.bootstrap.rrect;rSize=5;fillColor=none;strokeColor=#999999;align=left;spacing=15;fontSize=14;fontColor=#6C767D;" vertex="1" parent="1">
          <mxGeometry x="2890" y="560" width="320" height="30" as="geometry" />
        </mxCell>
        <mxCell id="r75Npt6Qh3wSkLgOKH2S-23" value="Password" style="fillColor=none;strokeColor=none;align=left;fontSize=14;fontColor=#212529;" vertex="1" parent="1">
          <mxGeometry x="2810" y="645" width="200" height="30" as="geometry" />
        </mxCell>
        <mxCell id="r75Npt6Qh3wSkLgOKH2S-24" value="" style="html=1;shadow=1;dashed=0;shape=mxgraph.bootstrap.rrect;rSize=5;fillColor=none;strokeColor=#999999;align=left;spacing=15;fontSize=14;fontColor=#6C767D;" vertex="1" parent="1">
          <mxGeometry x="2890" y="600" width="320" height="30" as="geometry" />
        </mxCell>
        <mxCell id="r75Npt6Qh3wSkLgOKH2S-25" value="Sign in" style="html=1;shadow=0;dashed=0;shape=mxgraph.bootstrap.rrect;rSize=5;fillColor=#647687;strokeColor=#314354;align=center;fontSize=14;fontColor=#ffffff;sketch=0;" vertex="1" parent="1">
          <mxGeometry x="2915" y="840" width="190" height="40" as="geometry" />
        </mxCell>
        <mxCell id="r75Npt6Qh3wSkLgOKH2S-26" value="&lt;u&gt;Register&lt;/u&gt;" style="text;html=1;strokeColor=none;fillColor=none;align=center;verticalAlign=middle;whiteSpace=wrap;rounded=0;" vertex="1" parent="1">
          <mxGeometry x="3135" y="840" width="60" height="30" as="geometry" />
        </mxCell>
        <mxCell id="r75Npt6Qh3wSkLgOKH2S-27" value="&lt;b style=&quot;&quot;&gt;&lt;font color=&quot;#121111&quot;&gt;Register to &lt;/font&gt;&lt;font color=&quot;#006633&quot;&gt;VG15&lt;/font&gt;&lt;/b&gt;" style="text;html=1;points=[];align=left;verticalAlign=top;spacingTop=-4;fontSize=30;fontFamily=Verdana" vertex="1" parent="1">
          <mxGeometry x="2855" y="390" width="340" height="50" as="geometry" />
        </mxCell>
        <mxCell id="r75Npt6Qh3wSkLgOKH2S-34" value="" style="html=1;shadow=1;dashed=0;shape=mxgraph.bootstrap.rrect;rSize=5;fillColor=none;strokeColor=#999999;align=left;spacing=15;fontSize=14;fontColor=#6C767D;" vertex="1" parent="1">
          <mxGeometry x="2890" y="645" width="320" height="30" as="geometry" />
        </mxCell>
        <mxCell id="r75Npt6Qh3wSkLgOKH2S-35" value="" style="html=1;shadow=1;dashed=0;shape=mxgraph.bootstrap.rrect;rSize=5;fillColor=none;strokeColor=#999999;align=left;spacing=15;fontSize=14;fontColor=#6C767D;" vertex="1" parent="1">
          <mxGeometry x="2890" y="690" width="320" height="30" as="geometry" />
        </mxCell>
        <mxCell id="r75Npt6Qh3wSkLgOKH2S-36" value="Password" style="fillColor=none;strokeColor=none;align=left;fontSize=14;fontColor=#212529;" vertex="1" parent="1">
          <mxGeometry x="2810" y="645" width="200" height="30" as="geometry" />
        </mxCell>
        <mxCell id="r75Npt6Qh3wSkLgOKH2S-37" value="Confirm&#xa;Password" style="fillColor=none;strokeColor=none;align=left;fontSize=14;fontColor=#212529;" vertex="1" parent="1">
          <mxGeometry x="2810" y="690" width="200" height="30" as="geometry" />
        </mxCell>
        <mxCell id="r75Npt6Qh3wSkLgOKH2S-38" value="Email" style="fillColor=none;strokeColor=none;align=left;fontSize=14;fontColor=#212529;" vertex="1" parent="1">
          <mxGeometry x="2810" y="600" width="200" height="30" as="geometry" />
        </mxCell>
      </root>
    </mxGraphModel>
  </diagram>
</mxfile>
